PathFileType	4	(X/Y/Z)	 s01c0401.trc
DataRate	CameraRate	NumFrames	NumMarkers	Units	OrigDataRate	OrigDataStartFrame	OrigNumFrames
200	200	4	48	mm	200	1501	2000
Frame#	Time	racr			lacr			c7			jug			rlel			rdr			llel			ldr			s2			lic			ric			lasi			rasi			rpsi			lpsi			rgt			lgt			rth1			rth2			rth3			rth4			rlfc			rsh1			rsh2			rsh3			rsh4			rlmal			rmmal			rcal			rtoe			rmt5			lth1			lth2			lth4			lth3			llfc			lsh1			lsh2			lsh3			lsh4			llmal			lmmal			lcal			ltoe			lmt5			SBIKE			LBIKE			RBIKE			
		X1	Y1	Z1	X2	Y2	Z2	X3	Y3	Z3	X4	Y4	Z4	X5	Y5	Z5	X6	Y6	Z6	X7	Y7	Z7	X8	Y8	Z8	X9	Y9	Z9	X10	Y10	Z10	X11	Y11	Z11	X12	Y12	Z12	X13	Y13	Z13	X14	Y14	Z14	X15	Y15	Z15	X16	Y16	Z16	X17	Y17	Z17	X18	Y18	Z18	X19	Y19	Z19	X20	Y20	Z20	X21	Y21	Z21	X22	Y22	Z22	X23	Y23	Z23	X24	Y24	Z24	X25	Y25	Z25	X26	Y26	Z26	X27	Y27	Z27	X28	Y28	Z28	X29	Y29	Z29	X30	Y30	Z30	X31	Y31	Z31	X32	Y32	Z32	X33	Y33	Z33	X34	Y34	Z34	X35	Y35	Z35	X36	Y36	Z36	X37	Y37	Z37	X38	Y38	Z38	X39	Y39	Z39	X40	Y40	Z40	X41	Y41	Z41	X42	Y42	Z42	X43	Y43	Z43	X44	Y44	Z44	X45	Y45	Z45	X46	Y46	Z46	X47	Y47	Z47	X48	Y48	Z48	
1501	7.5050	721.797029	1275.149903	-61.483237	732.086920	1228.836560	-438.278435	747.272388	1364.414021	-249.093370	704.364823	1199.723945	-241.020824	557.617222	1061.777657	59.620817	702.466706	889.546389	-26.916895	537.162122	1039.115049	-561.133268	686.257455	890.960614	-446.358214	193.938057	1236.292863	-233.902891	350.254352	1229.453329	-416.254814	354.484983	1219.693165	-86.620492	378.167469	1182.262473	-424.071531	372.334370	1172.613847	-120.652364	229.766910	1273.268799	-183.548961	227.090622	1275.987669	-288.485719	301.571090	1109.711244	-53.762371	277.100177	1091.490510	-430.161422	392.720765	1013.044324	-52.201794	450.380743	953.455738	-62.071926	506.805738	884.611544	-78.360554	486.822479	988.500034	-86.281858	531.224093	779.943372	-105.134632	427.285232	725.746928	-67.469700	355.850701	680.364749	-69.556101	276.144856	640.952444	-75.896973	378.194238	641.505467	-109.123627	160.947464	595.293565	-89.685265	193.540122	569.420754	-168.638617	119.499678	616.383170	-143.868125	219.122991	362.642569	-137.238277	149.581523	443.022613	-65.972512	305.715861	961.865649	-438.489682	355.240300	890.627542	-428.711543	400.972019	919.998997	-425.244161	395.741614	817.212980	-410.672940	435.766293	713.326482	-393.587451	378.030756	613.794539	-435.427918	354.206844	529.469303	-432.018957	326.990073	449.291295	-423.747717	405.536648	516.571006	-400.283302	281.613606	329.579407	-412.432087	315.821085	345.175521	-332.712633	229.712337	314.393587	-375.138933	479.491090	192.663986	-368.479996	376.450211	209.352310	-440.487933	-270.356830	877.925381	-266.921944	-11.961118	84.383899	-453.617584	-20.245481	81.148649	-53.761929	
1502	7.5100	720.701663	1276.249304	-59.299350	732.895946	1228.667912	-436.125494	746.872269	1364.743322	-246.761666	704.643059	1200.107173	-238.973859	556.682926	1061.461031	59.778214	702.376646	889.590997	-27.135837	537.565717	1039.764451	-560.422239	686.366239	890.872686	-446.405967	193.914862	1235.165416	-235.335929	350.346352	1228.257827	-417.017698	353.649350	1220.200668	-86.805532	377.028848	1180.124927	-423.361519	372.265080	1172.860236	-120.783319	229.479453	1272.374328	-185.115622	227.263968	1274.479825	-290.048984	302.123094	1110.899742	-53.731580	275.295831	1089.370543	-430.216393	395.714736	1016.133164	-51.758506	454.101678	957.799728	-60.783604	512.268947	890.348974	-77.269232	490.775910	993.418902	-85.755862	538.792846	786.004935	-104.630667	434.836939	732.656289	-67.136857	363.134864	687.758038	-69.438246	282.933573	649.064932	-75.896536	385.193388	648.639301	-108.825734	167.744063	603.194970	-89.806236	200.547279	577.388535	-168.834625	125.731820	624.002885	-144.231499	227.385655	371.145108	-137.255127	157.811028	451.545802	-65.890031	300.954750	959.645296	-438.789841	348.309722	887.041451	-429.002034	394.909416	915.043279	-426.023188	386.678025	812.513456	-411.200837	425.763928	707.062690	-394.161840	369.279951	607.811725	-436.097555	346.374378	523.372287	-432.413434	319.715803	442.899183	-424.149329	397.851341	510.971510	-400.987364	275.396765	322.909846	-412.218052	310.829909	340.799242	-332.613342	224.150365	309.002513	-375.141140	472.126309	183.360523	-368.490192	369.339791	201.841780	-440.700993	-270.381671	877.916431	-266.964244	-11.962048	84.377517	-453.614029	-20.243971	81.152629	-53.745284	
1503	7.5150	719.594046	1277.162607	-56.926488	733.749039	1228.490177	-433.855487	746.457220	1365.034281	-244.361613	704.846941	1200.374886	-236.702458	555.609702	1061.217005	60.053026	702.206831	889.555638	-27.454120	538.061523	1040.607018	-559.729946	686.493234	890.853880	-446.350242	193.970653	1233.987452	-236.796025	350.712214	1226.983991	-417.569468	352.764256	1220.677607	-87.055628	375.009107	1177.675721	-421.513948	372.211380	1173.104255	-120.849508	229.276223	1271.495669	-186.671074	227.498679	1272.997432	-291.656849	302.624304	1112.180604	-53.635658	273.489109	1087.436371	-430.222476	397.977755	1018.810885	-51.162836	457.926623	962.073182	-59.715073	517.615307	895.821067	-76.074755	493.636846	998.459538	-85.020995	546.293497	792.232845	-103.828828	442.451840	739.365548	-67.352957	370.403301	694.987761	-69.359126	290.061894	656.662516	-76.019760	392.356432	655.667901	-108.684691	175.019996	610.604032	-89.944993	207.824795	584.821892	-168.964057	131.932642	631.039116	-144.784333	236.208073	379.193301	-137.198863	165.437985	458.619022	-66.489102	296.346994	957.742412	-439.271599	341.539442	883.856089	-429.501920	389.039369	910.514377	-426.939582	377.785871	808.334789	-412.051597	415.817014	701.014497	-394.297740	360.085106	602.492824	-436.993174	337.579442	517.959084	-433.304830	311.760084	437.252856	-424.730750	389.333466	505.942623	-401.747210	268.775074	316.746032	-412.164114	305.556102	336.909663	-332.459729	218.115639	304.069257	-375.242788	464.147775	174.776990	-368.511192	361.686377	194.689887	-440.772830	-270.415373	877.919572	-266.935613	-11.965976	84.368905	-453.614035	-20.248599	81.151791	-53.740016	
1504	7.5200	718.385828	1278.069334	-54.381000	734.635583	1228.260926	-431.459993	745.995981	1365.210514	-241.936953	705.089595	1200.792835	-234.341000	554.662882	1060.911399	60.370258	702.065689	889.526782	-27.701742	538.751810	1041.369197	-559.084957	686.610112	890.847620	-446.295705	194.098763	1232.931575	-238.321210	351.300793	1225.580252	-417.893352	351.991114	1221.149003	-87.202279	372.340235	1174.995808	-418.793883	372.151930	1173.338512	-120.880059	229.121678	1270.675516	-188.255756	227.787878	1271.533952	-293.282292	302.990507	1113.457821	-53.607504	271.802437	1085.639781	-430.186723	399.898720	1021.270866	-50.204730	461.201858	966.020873	-58.385936	522.715732	901.118827	-74.553875	495.151107	1003.039042	-83.347861	552.765661	799.240295	-102.075432	450.073720	745.917081	-67.089275	377.807631	701.824924	-69.250693	297.387268	663.780668	-76.172182	399.747183	662.370348	-108.419975	182.449515	617.547657	-90.224420	215.580620	591.808098	-169.304585	138.939390	637.678674	-144.837451	245.452219	386.764953	-137.271309	174.085106	465.634844	-66.689745	291.887930	956.134893	-439.854754	335.151810	881.086745	-430.334025	383.368791	906.455459	-427.926099	369.252153	804.544136	-413.159326	405.344587	695.609744	-396.033044	350.497228	597.793726	-438.105462	328.387572	513.374687	-434.343838	303.166173	432.307629	-425.479690	380.371254	501.585123	-403.019617	261.770848	311.124052	-412.242131	300.023371	333.499780	-332.256244	211.628789	299.607542	-375.444580	455.756858	166.664866	-368.690352	353.583011	188.026772	-440.870961	-270.479331	877.907304	-266.964824	-11.972483	84.367989	-453.612225	-20.256924	81.148901	-53.760157	
